<?xml version="1.0" standalone="no"?>
<!DOCTYPE svg PUBLIC "-//W3C//DTD SVG 20010904//EN"
 "http://www.w3.org/TR/2001/REC-SVG-20010904/DTD/svg10.dtd">
<svg version="1.0" xmlns="http://www.w3.org/2000/svg"
 width="64.000000pt" height="64.000000pt" viewBox="0 0 64.000000 64.000000"
 preserveAspectRatio="xMidYMid meet">

<g transform="translate(0.000000,64.000000) scale(0.100000,-0.100000)"
fill="#000000" stroke="none">
<path d="M140 560 c-19 -19 -20 -33 -20 -240 0 -282 -17 -260 200 -260 214 0
200 -16 200 226 l0 185 -54 55 -55 54 -125 0 c-113 0 -128 -2 -146 -20z m260
-38 c0 -48 14 -62 62 -62 l38 0 -2 -167 -3 -168 -175 0 -175 0 -3 205 c-1 112
0 210 2 217 4 10 38 13 131 13 l125 0 0 -38z m55 -12 l29 -30 -32 0 c-29 0
-32 3 -32 30 0 17 1 30 3 30 2 0 16 -13 32 -30z m42 -415 c-5 -14 -349 -14
-354 0 -2 6 61 10 177 10 116 0 179 -4 177 -10z"/>
<path d="M235 410 c-14 -15 -21 -17 -32 -9 -7 7 -16 9 -20 5 -4 -3 2 -13 13
-21 17 -12 22 -11 43 10 14 14 23 27 20 30 -3 3 -14 -4 -24 -15z"/>
<path d="M290 420 c0 -6 37 -10 90 -10 53 0 90 4 90 10 0 6 -37 10 -90 10 -53
0 -90 -4 -90 -10z"/>
<path d="M290 380 c0 -6 28 -10 65 -10 37 0 65 4 65 10 0 6 -28 10 -65 10 -37
0 -65 -4 -65 -10z"/>
<path d="M174 316 c-12 -31 0 -51 31 -51 27 0 30 3 30 30 0 25 -4 30 -28 33
-17 2 -29 -2 -33 -12z m46 -21 c0 -8 -7 -15 -15 -15 -8 0 -15 7 -15 15 0 8 7
15 15 15 8 0 15 -7 15 -15z"/>
<path d="M290 320 c0 -6 37 -10 90 -10 53 0 90 4 90 10 0 6 -37 10 -90 10 -53
0 -90 -4 -90 -10z"/>
<path d="M290 280 c0 -6 28 -10 65 -10 37 0 65 4 65 10 0 6 -28 10 -65 10 -37
0 -65 -4 -65 -10z"/>
<path d="M177 224 c-4 -4 -7 -20 -7 -36 0 -25 3 -28 36 -28 34 0 35 1 32 33
-2 26 -8 33 -28 35 -14 2 -29 0 -33 -4z m43 -29 c0 -8 -7 -15 -15 -15 -8 0
-15 7 -15 15 0 8 7 15 15 15 8 0 15 -7 15 -15z"/>
<path d="M290 220 c0 -6 37 -10 90 -10 53 0 90 4 90 10 0 6 -37 10 -90 10 -53
0 -90 -4 -90 -10z"/>
<path d="M290 180 c0 -6 28 -10 65 -10 37 0 65 4 65 10 0 6 -28 10 -65 10 -37
0 -65 -4 -65 -10z"/>
</g>
</svg>
